<?xml version="1.0" encoding="utf-8"?>
<!-- Generator: Adobe Illustrator 17.1.0, SVG Export Plug-In . SVG Version: 6.00 Build 0)  -->
<!DOCTYPE svg PUBLIC "-//W3C//DTD SVG 1.1//EN" "http://www.w3.org/Graphics/SVG/1.1/DTD/svg11.dtd">
<svg version="1.1" id="branding_1_" xmlns="http://www.w3.org/2000/svg" xmlns:xlink="http://www.w3.org/1999/xlink" x="0px"
	 y="0px" viewBox="12.5 12.5 50 50" enable-background="new 12.5 12.5 50 50" xml:space="preserve">
<g>
	<g id="branding-audio">
		<path fill="#231F20" d="M50.5,55.9l-12-12l12-12l12,12L50.5,55.9z M39,43.9l11.5,11.5L62,43.9L50.5,32.3L39,43.9z M50.5,47.1
			l-3.3-3.3l3.3-3.3l3.3,3.3L50.5,47.1z M47.7,43.9l2.8,2.8l2.8-2.8l-2.8-2.8L47.7,43.9z"/>
	</g>
	<g id="branding-video">
		<path fill="#231F20" d="M37.5,43.1l-12-12l12-12l12,12L37.5,43.1z M26,31.1l11.5,11.5L49,31.1L37.5,19.6L26,31.1z M37.5,34.4
			l-3.3-3.3l3.3-3.3l3.3,3.3L37.5,34.4z M34.7,31.1l2.8,2.8l2.8-2.8l-2.8-2.8L34.7,31.1z"/>
	</g>
	<g id="branding-design">
		<path fill="#231F20" d="M24.5,55.9l-12-12l12-12l12,12L24.5,55.9z M13,43.9l11.5,11.5L36,43.9L24.5,32.3L13,43.9z M24.5,47.1
			l-3.3-3.3l3.3-3.3l3.3,3.3L24.5,47.1z M21.7,43.9l2.8,2.8l2.8-2.8l-2.8-2.8L21.7,43.9z"/>
	</g>
</g>
</svg>
