<?xml version="1.0" encoding="utf-8"?>
<!-- Generator: Adobe Illustrator 17.0.0, SVG Export Plug-In . SVG Version: 6.00 Build 0)  -->
<!DOCTYPE svg PUBLIC "-//W3C//DTD SVG 1.1//EN" "http://www.w3.org/Graphics/SVG/1.1/DTD/svg11.dtd">
<svg version="1.1" id="branding_1_" xmlns="http://www.w3.org/2000/svg" xmlns:xlink="http://www.w3.org/1999/xlink" x="0px"
	 y="0px" width="75px" height="75px" viewBox="0 0 75 75" enable-background="new 0 0 75 75" xml:space="preserve">
<path id="branding-audio" fill="none" stroke="#231F20" stroke-width="0.5" stroke-miterlimit="10" d="M56.379,42.894l4.377,4.377
	l-4.377,4.378l-4.378-4.378L56.379,42.894 M56.379,30.15L39.258,47.271l17.121,17.121L73.5,47.271L56.379,30.15L56.379,30.15z"/>
<path id="branding-video" fill="none" stroke="#231F20" stroke-width="0.5" stroke-miterlimit="10" d="M37.508,24.351l4.377,4.378
	l-4.377,4.377l-4.378-4.377L37.508,24.351 M37.508,11.608L20.387,28.729L37.508,45.85l17.121-17.121L37.508,11.608L37.508,11.608z"
	/>
<path id="branding-design" fill="none" stroke="#231F20" stroke-width="0.5" stroke-linecap="square" stroke-miterlimit="10" d="
	M18.621,42.894l4.378,4.377l-4.378,4.378l-4.378-4.378L18.621,42.894 M18.621,30.15L1.5,47.271l17.121,17.121l17.121-17.121
	L18.621,30.15L18.621,30.15z"/>
</svg>
