<svg x=0 y=0 width=200px height=200px viewBox="0 0 200 200"><g><g><g><path fill="rgb(70,72,74)" d="M100,172.9570313c-40.2285156,0-72.9570313-32.7285156-72.9570313-72.9570313 S59.7714844,27.0429688,100,27.0429688S172.9570313,59.7714844,172.9570313,100S140.2285156,172.9570313,100,172.9570313z"/><path fill="#B3FFC6" d="M100,32.0429688c37.4716797,0,67.9570313,30.4853516,67.9570313,67.9570313 S137.4716797,167.9570313,100,167.9570313S32.0429688,137.4716797,32.0429688,100S62.5283203,32.0429688,100,32.0429688 M100,22.0429688c-43.0537109,0-77.9570313,34.9023438-77.9570313,77.9570313 c0,43.0537109,34.9033203,77.9570313,77.9570313,77.9570313c43.0546875,0,77.9570313-34.9033203,77.9570313-77.9570313 C177.9570313,56.9453125,143.0546875,22.0429688,100,22.0429688L100,22.0429688z"/></g><g><path fill="#B3FFC6" d="M141.0683594,64.7841797c-10.0341797-9.8681641-24.0146484-14.8027344-37.0078125-14.8027344 c-33.7207031,0-50.9912109,24.6728516-50.8291016,51.3193359c0,27.1396484,17.2714844,50.4960938,50.8291016,50.4960938 c12.3339844,0,25.1660156-4.2753906,35.0351563-13.3232422v-32.2382813H98.9609375v-7.7304688h48.5224609v43.0947266 c-12.0078125,12.0068359-26.3173828,18.5869141-43.4228516,18.5869141 c-39.1503906,0-59.3798828-27.3046875-59.3798828-58.7216797C44.5146484,65.4433594,69.0224609,41.921875,104.0605469,41.921875 c15.1318359,0,30.4296875,5.7558594,42.1083984,17.2714844L141.0683594,64.7841797z"/></g></g></g></svg>